<?xml version="1.0"?>
<svg version="1.1" id="圖層_1" xmlns="http://www.w3.org/2000/svg" x="0" y="0" viewBox="0 0 100 100" xml:space="preserve"><path fill="#ccc" d="M44.9 55.7h10.2V91H44.9z"/><path d="M73.4 76.5H26.6c-2.5 0-4.6-2-4.6-4.6V13.6c0-2.5 2-4.6 4.6-4.6h46.7c2.5 0 4.6 2 4.6 4.6V72c0 2.5-2 4.5-4.5 4.5z" fill="#77a4bd"/><g><path d="M43.4 49.8v16.5h-8.9V19.4h16.8c3.2 0 6.1.6 8.5 1.9 2.5 1.3 4.3 3.1 5.7 5.5 1.3 2.4 2 5.1 2 8.1 0 4.6-1.4 8.2-4.3 10.9-2.9 2.7-6.9 4-12 4h-7.8zm0-7.8h7.9c2.3 0 4.1-.6 5.4-1.8 1.2-1.2 1.8-2.9 1.8-5.2 0-2.3-.6-4.2-1.9-5.6-1.2-1.4-3-2.1-5.1-2.2h-8.1V42z" fill="#e0e0e0"/></g><metadata xmlns:d="https://loading.io/stock/"><d:name>park area</d:name><d:tags>stop,pool,car,parking lot,park area,transportation</d:tags><d:license>by</d:license><d:slug>vz0spj</d:slug></metadata></svg>